<?xml version="1.0" standalone="no"?>
<!DOCTYPE svg PUBLIC "-//W3C//DTD SVG 1.1//EN" "http://www.w3.org/Graphics/SVG/1.1/DTD/svg11.dtd">
<svg width="40mm" height="40mm" viewBox="-20 -20 40 40" xmlns="http://www.w3.org/2000/svg" version="1.1">
<title>OpenSCAD Model</title>
<path d="
M 2.09056,19.8904 L 4.15823,19.5629 L 6.18033,19.0211 L 8.13472,18.2709 L 10,17.3205 L 11.7557,16.1803
 L 13.3826,14.8629 L 14.8629,13.3826 L 16.1803,11.7557 L 17.3205,9.99998 L 18.2709,8.13472 L 19.0211,6.18033
 L 19.5629,4.15823 L 19.8904,2.09056 L 20,-0 L 19.8904,-2.09056 L 19.5629,-4.15823 L 19.0211,-6.18033
 L 18.2709,-8.13472 L 17.3205,-9.99998 L 16.1803,-11.7557 L 14.8629,-13.3826 L 13.3826,-14.8629 L 11.7557,-16.1803
 L 10,-17.3205 L 8.13472,-18.2709 L 6.18033,-19.0211 L 4.15823,-19.5629 L 2.09056,-19.8904 L 0,-20
 L -2.09056,-19.8904 L -4.15823,-19.5629 L -6.18033,-19.0211 L -8.13472,-18.2709 L -9.99998,-17.3205 L -11.7557,-16.1803
 L -13.3826,-14.8629 L -14.8629,-13.3826 L -16.1803,-11.7557 L -17.3205,-9.99998 L -18.2709,-8.13472 L -19.0211,-6.18033
 L -19.5629,-4.15823 L -19.8904,-2.09056 L -20,-0 L -19.8904,2.09056 L -19.5629,4.15823 L -19.0211,6.18033
 L -18.2709,8.13472 L -17.3205,9.99998 L -16.1803,11.7557 L -14.8629,13.3826 L -13.3826,14.8629 L -11.7557,16.1803
 L -10,17.3205 L -8.13472,18.2709 L -6.18033,19.0211 L -4.15823,19.5629 L -2.09056,19.8904 L 0,20
 z
M -1.28047,12.1829 L -2.54691,11.9823 L -3.78545,11.6504 L -4.98251,11.1909 L -6.125,10.6088 L -7.20036,9.91045
 L -8.19684,9.10352 L -9.10352,8.19684 L -9.91045,7.20036 L -10.6088,6.12498 L -11.1909,4.98251 L -11.6504,3.78545
 L -11.9823,2.54691 L -12.1829,1.28047 L -12.25,-0 L -12.1829,-1.28047 L -11.9823,-2.54691 L -11.6504,-3.78545
 L -11.1909,-4.98251 L -10.6088,-6.12498 L -9.91045,-7.20036 L -9.10352,-8.19684 L -8.19684,-9.10352 L -7.20036,-9.91045
 L -6.12498,-10.6088 L -4.98251,-11.1909 L -3.78545,-11.6504 L -2.54691,-11.9823 L -1.28047,-12.1829 L 0,-12.25
 L 1.28047,-12.1829 L 2.54691,-11.9823 L 3.78545,-11.6504 L 4.98251,-11.1909 L 6.125,-10.6088 L 7.20036,-9.91045
 L 8.19684,-9.10352 L 9.10352,-8.19684 L 9.91045,-7.20036 L 10.6088,-6.12498 L 11.1909,-4.98251 L 11.6504,-3.78545
 L 11.9823,-2.54691 L 12.1829,-1.28047 L 12.25,-0 L 12.1829,1.28047 L 11.9823,2.54691 L 11.6504,3.78545
 L 11.1909,4.98251 L 10.6088,6.12498 L 9.91045,7.20036 L 9.10352,8.19684 L 8.19684,9.10352 L 7.20036,9.91045
 L 6.125,10.6088 L 4.98251,11.1909 L 3.78545,11.6504 L 2.54691,11.9823 L 1.28047,12.1829 L 0,12.25
 z
M 1.07141,10.1938 L 2.13109,10.026 L 3.16742,9.74832 L 4.16904,9.36383 L 5.125,8.87675 L 6.0248,8.29242
 L 6.85858,7.61723 L 7.61723,6.85858 L 8.29242,6.0248 L 8.87675,5.12498 L 9.36383,4.16904 L 9.74832,3.16742
 L 10.026,2.13109 L 10.1938,1.07141 L 10.25,-0 L 10.1938,-1.07141 L 10.026,-2.13109 L 9.74832,-3.16742
 L 9.36383,-4.16904 L 8.87675,-5.12498 L 8.29242,-6.0248 L 7.61723,-6.85858 L 6.85858,-7.61723 L 6.0248,-8.29242
 L 5.125,-8.87675 L 4.16904,-9.36383 L 3.16742,-9.74832 L 2.13109,-10.026 L 1.07141,-10.1938 L 0,-10.25
 L -1.07141,-10.1938 L -2.13109,-10.026 L -3.16742,-9.74832 L -4.16904,-9.36383 L -5.12498,-8.87675 L -6.0248,-8.29242
 L -6.85858,-7.61723 L -7.61723,-6.85858 L -8.29242,-6.0248 L -8.87675,-5.12498 L -9.36383,-4.16904 L -9.74832,-3.16742
 L -10.026,-2.13109 L -10.1938,-1.07141 L -10.25,-0 L -10.1938,1.07141 L -10.026,2.13109 L -9.74832,3.16742
 L -9.36383,4.16904 L -8.87675,5.12498 L -8.29242,6.0248 L -7.61723,6.85858 L -6.85858,7.61723 L -6.0248,8.29242
 L -5.125,8.87675 L -4.16904,9.36383 L -3.16742,9.74832 L -2.13109,10.026 L -1.07141,10.1938 L 0,10.25
 z
M -0.331863,3.15759 L -0.66011,3.10561 L -0.981125,3.01959 L -1.29138,2.9005 L -1.58749,2.74962 L -1.86621,2.56862
 L -2.12448,2.35948 L -2.35948,2.12448 L -2.56862,1.86621 L -2.74962,1.58749 L -2.9005,1.29138 L -3.01959,0.981125
 L -3.10561,0.66011 L -3.15759,0.331863 L -3.17499,-0 L -3.15759,-0.331863 L -3.10561,-0.66011 L -3.01959,-0.981125
 L -2.9005,-1.29138 L -2.74962,-1.58749 L -2.56862,-1.86621 L -2.35948,-2.12448 L -2.12448,-2.35948 L -1.86621,-2.56862
 L -1.58749,-2.74962 L -1.29138,-2.9005 L -0.981125,-3.01959 L -0.66011,-3.10561 L -0.331863,-3.15759 L 0,-3.17499
 L 0.331863,-3.15759 L 0.66011,-3.10561 L 0.981125,-3.01959 L 1.29138,-2.9005 L 1.58749,-2.74962 L 1.86621,-2.56862
 L 2.12448,-2.35948 L 2.35948,-2.12448 L 2.56862,-1.86621 L 2.74962,-1.58749 L 2.9005,-1.29138 L 3.01959,-0.981125
 L 3.10561,-0.66011 L 3.15759,-0.331863 L 3.17499,-0 L 3.15759,0.331863 L 3.10561,0.66011 L 3.01959,0.981125
 L 2.9005,1.29138 L 2.74962,1.58749 L 2.56862,1.86621 L 2.35948,2.12448 L 2.12448,2.35948 L 1.86621,2.56862
 L 1.58749,2.74962 L 1.29138,2.9005 L 0.981125,3.01959 L 0.66011,3.10561 L 0.331863,3.15759 L 0,3.17499
 z
" stroke="black" fill="lightgray" stroke-width="0.5"/>
</svg>
