<?xml version="1.0" standalone="no"?>
<!DOCTYPE svg PUBLIC "-//W3C//DTD SVG 1.1//EN" "http://www.w3.org/Graphics/SVG/1.1/DTD/svg11.dtd">
<svg width="40mm" height="40mm" viewBox="-20 -20 40 40" xmlns="http://www.w3.org/2000/svg" version="1.1">
<title>OpenSCAD Model</title>
<path d="
M 2.09056,19.8904 L 4.15823,19.5629 L 6.18033,19.0211 L 8.13472,18.2709 L 10,17.3205 L 11.7557,16.1803
 L 13.3826,14.8629 L 14.8629,13.3826 L 16.1803,11.7557 L 17.3205,9.99998 L 18.2709,8.13472 L 19.0211,6.18033
 L 19.5629,4.15823 L 19.8904,2.09056 L 20,-0 L 19.8904,-2.09056 L 19.5629,-4.15823 L 19.0211,-6.18033
 L 18.2709,-8.13472 L 17.3205,-9.99998 L 16.1803,-11.7557 L 14.8629,-13.3826 L 13.3826,-14.8629 L 11.7557,-16.1803
 L 10,-17.3205 L 8.13472,-18.2709 L 6.18033,-19.0211 L 4.15823,-19.5629 L 2.09056,-19.8904 L 0,-20
 L -2.09056,-19.8904 L -4.15823,-19.5629 L -6.18033,-19.0211 L -8.13472,-18.2709 L -9.99998,-17.3205 L -11.7557,-16.1803
 L -13.3826,-14.8629 L -14.8629,-13.3826 L -16.1803,-11.7557 L -17.3205,-9.99998 L -18.2709,-8.13472 L -19.0211,-6.18033
 L -19.5629,-4.15823 L -19.8904,-2.09056 L -20,-0 L -19.8904,2.09056 L -19.5629,4.15823 L -19.0211,6.18033
 L -18.2709,8.13472 L -17.3205,9.99998 L -16.1803,11.7557 L -14.8629,13.3826 L -13.3826,14.8629 L -11.7557,16.1803
 L -10,17.3205 L -8.13472,18.2709 L -6.18033,19.0211 L -4.15823,19.5629 L -2.09056,19.8904 L 0,20
 z
M -1.48952,14.1719 L -2.96274,13.9386 L -4.40349,13.5526 L -5.79599,13.018 L -7.125,12.3409 L -8.37593,11.5285
 L -9.53511,10.5898 L -10.5898,9.53511 L -11.5285,8.37593 L -12.3409,7.12498 L -13.018,5.79599 L -13.5526,4.40349
 L -13.9386,2.96274 L -14.1719,1.48952 L -14.25,-0 L -14.1719,-1.48952 L -13.9386,-2.96274 L -13.5526,-4.40349
 L -13.018,-5.79599 L -12.3409,-7.12498 L -11.5285,-8.37593 L -10.5898,-9.53511 L -9.53511,-10.5898 L -8.37593,-11.5285
 L -7.12498,-12.3409 L -5.79599,-13.018 L -4.40349,-13.5526 L -2.96274,-13.9386 L -1.48952,-14.1719 L 0,-14.25
 L 1.48952,-14.1719 L 2.96274,-13.9386 L 4.40349,-13.5526 L 5.79599,-13.018 L 7.125,-12.3409 L 8.37593,-11.5285
 L 9.53511,-10.5898 L 10.5898,-9.53511 L 11.5285,-8.37593 L 12.3409,-7.12498 L 13.018,-5.79599 L 13.5526,-4.40349
 L 13.9386,-2.96274 L 14.1719,-1.48952 L 14.25,-0 L 14.1719,1.48952 L 13.9386,2.96274 L 13.5526,4.40349
 L 13.018,5.79599 L 12.3409,7.12498 L 11.5285,8.37593 L 10.5898,9.53511 L 9.53511,10.5898 L 8.37593,11.5285
 L 7.125,12.3409 L 5.79599,13.018 L 4.40349,13.5526 L 2.96274,13.9386 L 1.48952,14.1719 L 0,14.25
 z
M 0.86235,8.2048 L 1.71527,8.06972 L 2.54938,7.84621 L 3.35558,7.53674 L 4.125,7.1447 L 4.84923,6.67438
 L 5.52032,6.13094 L 6.13094,5.52032 L 6.67438,4.84923 L 7.1447,4.12498 L 7.53674,3.35558 L 7.84621,2.54938
 L 8.06972,1.71527 L 8.2048,0.86235 L 8.25,-0 L 8.2048,-0.86235 L 8.06972,-1.71527 L 7.84621,-2.54938
 L 7.53674,-3.35558 L 7.1447,-4.12498 L 6.67438,-4.84923 L 6.13094,-5.52032 L 5.52032,-6.13094 L 4.84923,-6.67438
 L 4.125,-7.1447 L 3.35558,-7.53674 L 2.54938,-7.84621 L 1.71527,-8.06972 L 0.86235,-8.2048 L 0,-8.25
 L -0.86235,-8.2048 L -1.71527,-8.06972 L -2.54938,-7.84621 L -3.35558,-7.53674 L -4.12498,-7.1447 L -4.84923,-6.67438
 L -5.52032,-6.13094 L -6.13094,-5.52032 L -6.67438,-4.84923 L -7.1447,-4.12498 L -7.53674,-3.35558 L -7.84621,-2.54938
 L -8.06972,-1.71527 L -8.2048,-0.86235 L -8.25,-0 L -8.2048,0.86235 L -8.06972,1.71527 L -7.84621,2.54938
 L -7.53674,3.35558 L -7.1447,4.12498 L -6.67438,4.84923 L -6.13094,5.52032 L -5.52032,6.13094 L -4.84923,6.67438
 L -4.125,7.1447 L -3.35558,7.53674 L -2.54938,7.84621 L -1.71527,8.06972 L -0.86235,8.2048 L 0,8.25
 z
M -0.331863,3.15759 L -0.66011,3.10561 L -0.981125,3.01959 L -1.29138,2.9005 L -1.58749,2.74962 L -1.86621,2.56862
 L -2.12448,2.35948 L -2.35948,2.12448 L -2.56862,1.86621 L -2.74962,1.58749 L -2.9005,1.29138 L -3.01959,0.981125
 L -3.10561,0.66011 L -3.15759,0.331863 L -3.17499,-0 L -3.15759,-0.331863 L -3.10561,-0.66011 L -3.01959,-0.981125
 L -2.9005,-1.29138 L -2.74962,-1.58749 L -2.56862,-1.86621 L -2.35948,-2.12448 L -2.12448,-2.35948 L -1.86621,-2.56862
 L -1.58749,-2.74962 L -1.29138,-2.9005 L -0.981125,-3.01959 L -0.66011,-3.10561 L -0.331863,-3.15759 L 0,-3.17499
 L 0.331863,-3.15759 L 0.66011,-3.10561 L 0.981125,-3.01959 L 1.29138,-2.9005 L 1.58749,-2.74962 L 1.86621,-2.56862
 L 2.12448,-2.35948 L 2.35948,-2.12448 L 2.56862,-1.86621 L 2.74962,-1.58749 L 2.9005,-1.29138 L 3.01959,-0.981125
 L 3.10561,-0.66011 L 3.15759,-0.331863 L 3.17499,-0 L 3.15759,0.331863 L 3.10561,0.66011 L 3.01959,0.981125
 L 2.9005,1.29138 L 2.74962,1.58749 L 2.56862,1.86621 L 2.35948,2.12448 L 2.12448,2.35948 L 1.86621,2.56862
 L 1.58749,2.74962 L 1.29138,2.9005 L 0.981125,3.01959 L 0.66011,3.10561 L 0.331863,3.15759 L 0,3.17499
 z
" stroke="black" fill="lightgray" stroke-width="0.5"/>
</svg>
